<svg xmlns="http://www.w3.org/2000/svg" xmlns:xlink="http://www.w3.org/1999/xlink" contentStyleType="text/css" data-diagram-type="CLASS" height="1237.5px" preserveAspectRatio="none" style="width:2452px;height:1237px;background:#FFFFFF;" version="1.1" viewBox="0 0 2452 1237" width="2452.5px" zoomAndPan="magnify"><defs/><g><!--cluster model--><g class="cluster" data-entity="model" data-source-line="4" data-uid="ent0002" id="cluster_model"><path d="M10.625,583.0625 L72.5269,583.0625 A4.6875,4.6875 0 0 1 75.6519,586.1875 L84.4019,610.9336 L1436.875,610.9336 A3.125,3.125 0 0 1 1440,614.0586 L1440,1225.7375 A3.125,3.125 0 0 1 1436.875,1228.8625 L10.625,1228.8625 A3.125,3.125 0 0 1 7.5,1225.7375 L7.5,586.1875 A3.125,3.125 0 0 1 10.625,583.0625" fill="none" style="stroke:#000000;stroke-width:1.875;"/><line style="stroke:#000000;stroke-width:1.875;" x1="7.5" x2="84.4019" y1="610.9336" y2="610.9336"/><text fill="#000000" font-family="sans-serif" font-size="17.5" font-weight="bold" lengthAdjust="spacing" textLength="60.6519" x="12.5" y="601.8064">model</text></g><!--cluster view--><g class="cluster" data-entity="view" data-source-line="36" data-uid="ent0007" id="cluster_view"><path d="M1473.125,88.975 L1519.8169,88.975 A4.6875,4.6875 0 0 1 1522.9419,92.1 L1531.6919,116.8461 L2145.625,116.8461 A3.125,3.125 0 0 1 2148.75,119.9711 L2148.75,1174.8125 A3.125,3.125 0 0 1 2145.625,1177.9375 L1473.125,1177.9375 A3.125,3.125 0 0 1 1470,1174.8125 L1470,92.1 A3.125,3.125 0 0 1 1473.125,88.975" fill="none" style="stroke:#000000;stroke-width:1.875;"/><line style="stroke:#000000;stroke-width:1.875;" x1="1470" x2="1531.6919" y1="116.8461" y2="116.8461"/><text fill="#000000" font-family="sans-serif" font-size="17.5" font-weight="bold" lengthAdjust="spacing" textLength="45.4419" x="1475" y="107.7189">view</text></g><!--cluster controller--><g class="cluster" data-entity="controller" data-source-line="61" data-uid="ent0015" id="cluster_controller"><path d="M2181.875,7.5 L2279.4946,7.5 A4.6875,4.6875 0 0 1 2282.6196,10.625 L2291.3696,35.3711 L2440.625,35.3711 A3.125,3.125 0 0 1 2443.75,38.4961 L2443.75,291.0875 A3.125,3.125 0 0 1 2440.625,294.2125 L2181.875,294.2125 A3.125,3.125 0 0 1 2178.75,291.0875 L2178.75,10.625 A3.125,3.125 0 0 1 2181.875,7.5" fill="none" style="stroke:#000000;stroke-width:1.875;"/><line style="stroke:#000000;stroke-width:1.875;" x1="2178.75" x2="2291.3696" y1="35.3711" y2="35.3711"/><text fill="#000000" font-family="sans-serif" font-size="17.5" font-weight="bold" lengthAdjust="spacing" textLength="96.3696" x="2183.75" y="26.2439">controller</text></g><!--class ModelMandelbrot--><g class="entity" data-entity="ModelMandelbrot" data-source-line="5" data-uid="ent0003" id="entity_ModelMandelbrot"><rect fill="#F1F1F1" height="345.1953" rx="3.125" ry="3.125" style="stroke:#181818;stroke-width:0.625;" width="522.0984" x="897.7" y="626.8125"/><ellipse cx="1077.404" cy="646.8125" fill="#ADD1B2" rx="13.75" ry="13.75" style="stroke:#181818;stroke-width:1.25;"/><path d="M1081.1149,653.8633 Q1080.3923,654.2344 1079.5915,654.4102 Q1078.7907,654.6055 1077.9118,654.6055 Q1074.7868,654.6055 1073.1266,652.5547 Q1071.486,650.4844 1071.486,646.5781 Q1071.486,642.6719 1073.1266,640.6016 Q1074.7868,638.5313 1077.9118,638.5313 Q1078.7907,638.5313 1079.5915,638.7266 Q1080.4118,638.9219 1081.1149,639.293 L1081.1149,642.6914 Q1080.3337,641.9688 1079.5915,641.6367 Q1078.8493,641.2852 1078.068,641.2852 Q1076.3884,641.2852 1075.529,642.6328 Q1074.6696,643.9609 1074.6696,646.5781 Q1074.6696,649.1953 1075.529,650.543 Q1076.3884,651.8711 1078.068,651.8711 Q1078.8493,651.8711 1079.5915,651.5391 Q1080.3337,651.1875 1081.1149,650.4648 L1081.1149,653.8633 Z " fill="#000000"/><text fill="#000000" font-family="sans-serif" font-size="17.5" lengthAdjust="spacing" textLength="152.0654" x="1103.029" y="652.8708">ModelMandelbrot</text><line style="stroke:#181818;stroke-width:0.625;" x1="898.95" x2="1418.5484" y1="666.8125" y2="666.8125"/><text fill="#000000" font-family="sans-serif" font-size="17.5" lengthAdjust="spacing" textLength="154.4922" x="905.2" y="688.0564">-minReal : double</text><text fill="#000000" font-family="sans-serif" font-size="17.5" lengthAdjust="spacing" textLength="159.6191" x="905.2" y="708.4275">-maxReal : double</text><text fill="#000000" font-family="sans-serif" font-size="17.5" lengthAdjust="spacing" textLength="160.0208" x="905.2" y="728.7986">-minImag : double</text><text fill="#000000" font-family="sans-serif" font-size="17.5" lengthAdjust="spacing" textLength="165.1477" x="905.2" y="749.1697">-maxImag : double</text><text fill="#000000" font-family="sans-serif" font-size="17.5" lengthAdjust="spacing" textLength="167.6257" x="905.2" y="769.5408">-maxIterations : int</text><text fill="#000000" font-family="sans-serif" font-size="17.5" lengthAdjust="spacing" textLength="348.1628" x="905.2" y="789.9119">-undoStack : Deque&lt;MandelbrotState&gt;</text><text fill="#000000" font-family="sans-serif" font-size="17.5" lengthAdjust="spacing" textLength="343.9417" x="905.2" y="810.283">-redoStack : Deque&lt;MandelbrotState&gt;</text><line style="stroke:#181818;stroke-width:0.625;" x1="898.95" x2="1418.5484" y1="819.4102" y2="819.4102"/><text fill="#000000" font-family="sans-serif" font-size="17.5" lengthAdjust="spacing" textLength="507.0984" x="905.2" y="840.6541">+setViewWindow(minReal, maxReal, minImag, maxImag)</text><text fill="#000000" font-family="sans-serif" font-size="17.5" lengthAdjust="spacing" textLength="296.0645" x="905.2" y="861.0251">+setMaxIterations(maxIterations)</text><text fill="#000000" font-family="sans-serif" font-size="17.5" lengthAdjust="spacing" textLength="243.5645" x="905.2" y="881.3962">+pan(deltaReal, deltaImag)</text><text fill="#000000" font-family="sans-serif" font-size="17.5" lengthAdjust="spacing" textLength="73.0249" x="905.2" y="901.7673">+reset()</text><text fill="#000000" font-family="sans-serif" font-size="17.5" lengthAdjust="spacing" textLength="147.887" x="905.2" y="922.1384">+saveToFile(file)</text><text fill="#000000" font-family="sans-serif" font-size="17.5" lengthAdjust="spacing" textLength="167.9419" x="905.2" y="942.5095">+loadFromFile(file)</text><text fill="#000000" font-family="sans-serif" font-size="17.5" lengthAdjust="spacing" textLength="197.1912" x="905.2" y="962.8806">+addListener(listener)</text></g><!--class ModelListener--><g class="entity" data-entity="ModelListener" data-source-line="21" data-uid="ent0004" id="entity_ModelListener"><rect fill="#F1F1F1" height="80.3711" rx="3.125" ry="3.125" style="stroke:#181818;stroke-width:0.625;" width="175.918" x="1244.5375" y="1087.75"/><ellipse cx="1269.1218" cy="1107.75" fill="#B4A7E5" rx="13.75" ry="13.75" style="stroke:#181818;stroke-width:1.25;"/><path d="M1264.0241,1102.457 L1264.0241,1099.7617 L1273.2624,1099.7617 L1273.2624,1102.457 L1270.1765,1102.457 L1270.1765,1112.5547 L1273.2624,1112.5547 L1273.2624,1115.25 L1264.0241,1115.25 L1264.0241,1112.5547 L1267.1101,1112.5547 L1267.1101,1102.457 L1264.0241,1102.457 Z " fill="#000000"/><text fill="#000000" font-family="sans-serif" font-size="17.5" font-style="italic" lengthAdjust="spacing" textLength="122.9529" x="1287.9183" y="1113.8083">ModelListener</text><line style="stroke:#181818;stroke-width:0.625;" x1="1245.7875" x2="1419.2055" y1="1127.75" y2="1127.75"/><line style="stroke:#181818;stroke-width:0.625;" x1="1245.7875" x2="1419.2055" y1="1137.75" y2="1137.75"/><text fill="#000000" font-family="sans-serif" font-size="17.5" lengthAdjust="spacing" textLength="160.918" x="1252.0375" y="1158.9939">+modelChanged()</text></g><!--class MandelbrotCalculator--><g class="entity" data-entity="MandelbrotCalculator" data-source-line="24" data-uid="ent0005" id="entity_MandelbrotCalculator"><rect fill="#F1F1F1" height="80.3711" rx="3.125" ry="3.125" style="stroke:#181818;stroke-width:0.625;" width="944.3372" x="256.5875" y="1087.75"/><ellipse cx="629.2486" cy="1107.75" fill="#ADD1B2" rx="13.75" ry="13.75" style="stroke:#181818;stroke-width:1.25;"/><path d="M632.9596,1114.8008 Q632.2369,1115.1719 631.4361,1115.3477 Q630.6354,1115.543 629.7564,1115.543 Q626.6314,1115.543 624.9713,1113.4922 Q623.3307,1111.4219 623.3307,1107.5156 Q623.3307,1103.6094 624.9713,1101.5391 Q626.6314,1099.4688 629.7564,1099.4688 Q630.6354,1099.4688 631.4361,1099.6641 Q632.2564,1099.8594 632.9596,1100.2305 L632.9596,1103.6289 Q632.1783,1102.9063 631.4361,1102.5742 Q630.6939,1102.2227 629.9127,1102.2227 Q628.233,1102.2227 627.3736,1103.5703 Q626.5143,1104.8984 626.5143,1107.5156 Q626.5143,1110.1328 627.3736,1111.4805 Q628.233,1112.8086 629.9127,1112.8086 Q630.6939,1112.8086 631.4361,1112.4766 Q632.1783,1112.125 632.9596,1111.4023 L632.9596,1114.8008 Z " fill="#000000"/><text fill="#000000" font-family="sans-serif" font-size="17.5" lengthAdjust="spacing" textLength="188.3899" x="654.8736" y="1113.8083">MandelbrotCalculator</text><line style="stroke:#181818;stroke-width:0.625;" x1="257.8375" x2="1199.6747" y1="1127.75" y2="1127.75"/><line style="stroke:#181818;stroke-width:0.625;" x1="257.8375" x2="1199.6747" y1="1137.75" y2="1137.75"/><text fill="#000000" font-family="sans-serif" font-size="17.5" lengthAdjust="spacing" textLength="929.3372" x="264.0875" y="1158.9939">+calcMandelbrotSet(width, height, minReal, maxReal, minImag, maxImag, maxIterations, radiusSquared)</text></g><!--class MandelbrotState--><g class="entity" data-entity="MandelbrotState" data-source-line="27" data-uid="ent0006" id="entity_MandelbrotState"><rect fill="#F1F1F1" height="161.8555" rx="3.125" ry="3.125" style="stroke:#181818;stroke-width:0.625;" width="185.8447" x="27.075" y="1047.0125"/><ellipse cx="45.825" cy="1067.0125" fill="#ADD1B2" rx="13.75" ry="13.75" style="stroke:#181818;stroke-width:1.25;"/><path d="M49.5359,1074.0633 Q48.8133,1074.4344 48.0125,1074.6102 Q47.2117,1074.8055 46.3328,1074.8055 Q43.2078,1074.8055 41.5477,1072.7547 Q39.907,1070.6844 39.907,1066.7781 Q39.907,1062.8719 41.5477,1060.8016 Q43.2078,1058.7313 46.3328,1058.7313 Q47.2117,1058.7313 48.0125,1058.9266 Q48.8328,1059.1219 49.5359,1059.493 L49.5359,1062.8914 Q48.7547,1062.1688 48.0125,1061.8367 Q47.2703,1061.4852 46.4891,1061.4852 Q44.8094,1061.4852 43.95,1062.8328 Q43.0906,1064.1609 43.0906,1066.7781 Q43.0906,1069.3953 43.95,1070.743 Q44.8094,1072.0711 46.4891,1072.0711 Q47.2703,1072.0711 48.0125,1071.7391 Q48.7547,1071.3875 49.5359,1070.6648 L49.5359,1074.0633 Z " fill="#000000"/><text fill="#000000" font-family="sans-serif" font-size="17.5" lengthAdjust="spacing" textLength="145.8447" x="63.325" y="1073.0708">MandelbrotState</text><line style="stroke:#181818;stroke-width:0.625;" x1="28.325" x2="211.6697" y1="1087.0125" y2="1087.0125"/><text fill="#000000" font-family="sans-serif" font-size="17.5" lengthAdjust="spacing" textLength="154.4922" x="34.575" y="1108.2564">-minReal : double</text><text fill="#000000" font-family="sans-serif" font-size="17.5" lengthAdjust="spacing" textLength="159.6191" x="34.575" y="1128.6275">-maxReal : double</text><text fill="#000000" font-family="sans-serif" font-size="17.5" lengthAdjust="spacing" textLength="160.0208" x="34.575" y="1148.9986">-minImag : double</text><text fill="#000000" font-family="sans-serif" font-size="17.5" lengthAdjust="spacing" textLength="165.1477" x="34.575" y="1169.3697">-maxImag : double</text><text fill="#000000" font-family="sans-serif" font-size="17.5" lengthAdjust="spacing" textLength="167.6257" x="34.575" y="1189.7408">-maxIterations : int</text><line style="stroke:#181818;stroke-width:0.625;" x1="28.325" x2="211.6697" y1="1198.868" y2="1198.868"/></g><!--class ColourMap--><g class="entity" data-entity="ColourMap" data-source-line="37" data-uid="ent0008" id="entity_ColourMap"><rect fill="#F1F1F1" height="100.7422" rx="3.125" ry="3.125" style="stroke:#181818;stroke-width:0.625;" width="253.8306" x="1874.3375" y="749.0375"/><ellipse cx="1949.0842" cy="769.0375" fill="#B4A7E5" rx="13.75" ry="13.75" style="stroke:#181818;stroke-width:1.25;"/><path d="M1943.9865,763.7445 L1943.9865,761.0492 L1953.2248,761.0492 L1953.2248,763.7445 L1950.1389,763.7445 L1950.1389,773.8422 L1953.2248,773.8422 L1953.2248,776.5375 L1943.9865,776.5375 L1943.9865,773.8422 L1947.0725,773.8422 L1947.0725,763.7445 L1943.9865,763.7445 Z " fill="#000000"/><text fill="#000000" font-family="sans-serif" font-size="17.5" font-style="italic" lengthAdjust="spacing" textLength="93.7122" x="1974.7092" y="775.0958">ColourMap</text><line style="stroke:#181818;stroke-width:0.625;" x1="1875.5875" x2="2126.9181" y1="789.0375" y2="789.0375"/><line style="stroke:#181818;stroke-width:0.625;" x1="1875.5875" x2="2126.9181" y1="799.0375" y2="799.0375"/><text fill="#000000" font-family="sans-serif" font-size="17.5" lengthAdjust="spacing" textLength="238.8306" x="1881.8375" y="820.2814">+map(iter, maxIter) : Color</text><text fill="#000000" font-family="sans-serif" font-size="17.5" lengthAdjust="spacing" textLength="177.9309" x="1881.8375" y="840.6525">+getName() : String</text></g><!--class BlackWhiteColourMap--><g class="entity" data-entity="BlackWhiteColourMap" data-source-line="41" data-uid="ent0009" id="entity_BlackWhiteColourMap"><rect fill="#F1F1F1" height="60" rx="3.125" ry="3.125" style="stroke:#181818;stroke-width:0.625;" width="231.9446" x="1659.025" y="1097.9375"/><ellipse cx="1677.775" cy="1117.9375" fill="#ADD1B2" rx="13.75" ry="13.75" style="stroke:#181818;stroke-width:1.25;"/><path d="M1681.4859,1124.9883 Q1680.7633,1125.3594 1679.9625,1125.5352 Q1679.1617,1125.7305 1678.2828,1125.7305 Q1675.1578,1125.7305 1673.4977,1123.6797 Q1671.857,1121.6094 1671.857,1117.7031 Q1671.857,1113.7969 1673.4977,1111.7266 Q1675.1578,1109.6563 1678.2828,1109.6563 Q1679.1617,1109.6563 1679.9625,1109.8516 Q1680.7828,1110.0469 1681.4859,1110.418 L1681.4859,1113.8164 Q1680.7047,1113.0938 1679.9625,1112.7617 Q1679.2203,1112.4102 1678.4391,1112.4102 Q1676.7594,1112.4102 1675.9,1113.7578 Q1675.0406,1115.0859 1675.0406,1117.7031 Q1675.0406,1120.3203 1675.9,1121.668 Q1676.7594,1122.9961 1678.4391,1122.9961 Q1679.2203,1122.9961 1679.9625,1122.6641 Q1680.7047,1122.3125 1681.4859,1121.5898 L1681.4859,1124.9883 Z " fill="#000000"/><text fill="#000000" font-family="sans-serif" font-size="17.5" lengthAdjust="spacing" textLength="191.9446" x="1695.275" y="1123.9958">BlackWhiteColourMap</text><line style="stroke:#181818;stroke-width:0.625;" x1="1660.275" x2="1889.7196" y1="1137.9375" y2="1137.9375"/><line style="stroke:#181818;stroke-width:0.625;" x1="1660.275" x2="1889.7196" y1="1147.9375" y2="1147.9375"/></g><!--class BlueColourMap--><g class="entity" data-entity="BlueColourMap" data-source-line="42" data-uid="ent0010" id="entity_BlueColourMap"><rect fill="#F1F1F1" height="60" rx="3.125" ry="3.125" style="stroke:#181818;stroke-width:0.625;" width="172.4377" x="1935.025" y="1097.9375"/><ellipse cx="1953.775" cy="1117.9375" fill="#ADD1B2" rx="13.75" ry="13.75" style="stroke:#181818;stroke-width:1.25;"/><path d="M1957.4859,1124.9883 Q1956.7633,1125.3594 1955.9625,1125.5352 Q1955.1617,1125.7305 1954.2828,1125.7305 Q1951.1578,1125.7305 1949.4977,1123.6797 Q1947.857,1121.6094 1947.857,1117.7031 Q1947.857,1113.7969 1949.4977,1111.7266 Q1951.1578,1109.6563 1954.2828,1109.6563 Q1955.1617,1109.6563 1955.9625,1109.8516 Q1956.7828,1110.0469 1957.4859,1110.418 L1957.4859,1113.8164 Q1956.7047,1113.0938 1955.9625,1112.7617 Q1955.2203,1112.4102 1954.4391,1112.4102 Q1952.7594,1112.4102 1951.9,1113.7578 Q1951.0406,1115.0859 1951.0406,1117.7031 Q1951.0406,1120.3203 1951.9,1121.668 Q1952.7594,1122.9961 1954.4391,1122.9961 Q1955.2203,1122.9961 1955.9625,1122.6641 Q1956.7047,1122.3125 1957.4859,1121.5898 L1957.4859,1124.9883 Z " fill="#000000"/><text fill="#000000" font-family="sans-serif" font-size="17.5" lengthAdjust="spacing" textLength="132.4377" x="1971.275" y="1123.9958">BlueColourMap</text><line style="stroke:#181818;stroke-width:0.625;" x1="1936.275" x2="2106.2127" y1="1137.9375" y2="1137.9375"/><line style="stroke:#181818;stroke-width:0.625;" x1="1936.275" x2="2106.2127" y1="1147.9375" y2="1147.9375"/></g><!--class ControlPanelMandelbrot--><g class="entity" data-entity="ControlPanelMandelbrot" data-source-line="43" data-uid="ent0011" id="entity_ControlPanelMandelbrot"><rect fill="#F1F1F1" height="202.5977" rx="3.125" ry="3.125" style="stroke:#181818;stroke-width:0.625;" width="372.8101" x="1756.1" y="349.2125"/><ellipse cx="1831.6115" cy="369.2125" fill="#ADD1B2" rx="13.75" ry="13.75" style="stroke:#181818;stroke-width:1.25;"/><path d="M1835.3224,376.2633 Q1834.5998,376.6344 1833.799,376.8102 Q1832.9982,377.0055 1832.1193,377.0055 Q1828.9943,377.0055 1827.3341,374.9547 Q1825.6935,372.8844 1825.6935,368.9781 Q1825.6935,365.0719 1827.3341,363.0016 Q1828.9943,360.9313 1832.1193,360.9313 Q1832.9982,360.9313 1833.799,361.1266 Q1834.6193,361.3219 1835.3224,361.693 L1835.3224,365.0914 Q1834.5412,364.3688 1833.799,364.0367 Q1833.0568,363.6852 1832.2755,363.6852 Q1830.5958,363.6852 1829.7365,365.0328 Q1828.8771,366.3609 1828.8771,368.9781 Q1828.8771,371.5953 1829.7365,372.943 Q1830.5958,374.2711 1832.2755,374.2711 Q1833.0568,374.2711 1833.799,373.9391 Q1834.5412,373.5875 1835.3224,372.8648 L1835.3224,376.2633 Z " fill="#000000"/><text fill="#000000" font-family="sans-serif" font-size="17.5" lengthAdjust="spacing" textLength="211.1621" x="1857.2365" y="375.2708">ControlPanelMandelbrot</text><line style="stroke:#181818;stroke-width:0.625;" x1="1757.35" x2="2127.6601" y1="389.2125" y2="389.2125"/><text fill="#000000" font-family="sans-serif" font-size="17.5" lengthAdjust="spacing" textLength="236.8738" x="1763.6" y="410.4564">-iterationSpinner : JSpinner</text><text fill="#000000" font-family="sans-serif" font-size="17.5" lengthAdjust="spacing" textLength="190.4407" x="1763.6" y="430.8275">-resetButton : JButton</text><text fill="#000000" font-family="sans-serif" font-size="17.5" lengthAdjust="spacing" textLength="189.7314" x="1763.6" y="451.1986">-undoButton : JButton</text><text fill="#000000" font-family="sans-serif" font-size="17.5" lengthAdjust="spacing" textLength="185.5103" x="1763.6" y="471.5697">-redoButton : JButton</text><text fill="#000000" font-family="sans-serif" font-size="17.5" lengthAdjust="spacing" textLength="186.698" x="1763.6" y="491.9408">-saveButton : JButton</text><text fill="#000000" font-family="sans-serif" font-size="17.5" lengthAdjust="spacing" textLength="183.1348" x="1763.6" y="512.3119">-loadButton : JButton</text><text fill="#000000" font-family="sans-serif" font-size="17.5" lengthAdjust="spacing" textLength="357.8101" x="1763.6" y="532.683">-colourMapCombo : JComboBox&lt;String&gt;</text><line style="stroke:#181818;stroke-width:0.625;" x1="1757.35" x2="2127.6601" y1="541.8102" y2="541.8102"/></g><!--class MandelbrotPanel--><g class="entity" data-entity="MandelbrotPanel" data-source-line="52" data-uid="ent0012" id="entity_MandelbrotPanel"><rect fill="#F1F1F1" height="121.1133" rx="3.125" ry="3.125" style="stroke:#181818;stroke-width:0.625;" width="223.1628" x="1489.6625" y="389.9625"/><ellipse cx="1524.452" cy="409.9625" fill="#ADD1B2" rx="13.75" ry="13.75" style="stroke:#181818;stroke-width:1.25;"/><path d="M1528.1629,417.0133 Q1527.4403,417.3844 1526.6395,417.5602 Q1525.8387,417.7555 1524.9598,417.7555 Q1521.8348,417.7555 1520.1746,415.7047 Q1518.534,413.6344 1518.534,409.7281 Q1518.534,405.8219 1520.1746,403.7516 Q1521.8348,401.6813 1524.9598,401.6813 Q1525.8387,401.6813 1526.6395,401.8766 Q1527.4598,402.0719 1528.1629,402.443 L1528.1629,405.8414 Q1527.3817,405.1188 1526.6395,404.7867 Q1525.8973,404.4352 1525.1161,404.4352 Q1523.4364,404.4352 1522.577,405.7828 Q1521.7176,407.1109 1521.7176,409.7281 Q1521.7176,412.3453 1522.577,413.693 Q1523.4364,415.0211 1525.1161,415.0211 Q1525.8973,415.0211 1526.6395,414.6891 Q1527.3817,414.3375 1528.1629,413.6148 L1528.1629,417.0133 Z " fill="#000000"/><text fill="#000000" font-family="sans-serif" font-size="17.5" lengthAdjust="spacing" textLength="147.5195" x="1545.5163" y="416.0208">MandelbrotPanel</text><line style="stroke:#181818;stroke-width:0.625;" x1="1490.9125" x2="1711.5753" y1="429.9625" y2="429.9625"/><text fill="#000000" font-family="sans-serif" font-size="17.5" lengthAdjust="spacing" textLength="150.2966" x="1497.1625" y="451.2064">-dragStart : Point</text><text fill="#000000" font-family="sans-serif" font-size="17.5" lengthAdjust="spacing" textLength="140.8032" x="1497.1625" y="471.5775">-dragEnd : Point</text><text fill="#000000" font-family="sans-serif" font-size="17.5" lengthAdjust="spacing" textLength="208.1628" x="1497.1625" y="491.9486">-colourMap : ColourMap</text><line style="stroke:#181818;stroke-width:0.625;" x1="1490.9125" x2="1711.5753" y1="501.0758" y2="501.0758"/></g><!--class MandelbrotApp--><g class="entity" data-entity="MandelbrotApp" data-source-line="57" data-uid="ent0013" id="entity_MandelbrotApp"><rect fill="#F1F1F1" height="60" rx="3.125" ry="3.125" style="stroke:#181818;stroke-width:0.625;" width="173.7109" x="1684.4" y="132.725"/><ellipse cx="1703.15" cy="152.725" fill="#ADD1B2" rx="13.75" ry="13.75" style="stroke:#181818;stroke-width:1.25;"/><path d="M1706.8609,159.7758 Q1706.1383,160.1469 1705.3375,160.3227 Q1704.5367,160.518 1703.6578,160.518 Q1700.5328,160.518 1698.8727,158.4672 Q1697.232,156.3969 1697.232,152.4906 Q1697.232,148.5844 1698.8727,146.5141 Q1700.5328,144.4438 1703.6578,144.4438 Q1704.5367,144.4438 1705.3375,144.6391 Q1706.1578,144.8344 1706.8609,145.2055 L1706.8609,148.6039 Q1706.0797,147.8813 1705.3375,147.5492 Q1704.5953,147.1977 1703.8141,147.1977 Q1702.1344,147.1977 1701.275,148.5453 Q1700.4156,149.8734 1700.4156,152.4906 Q1700.4156,155.1078 1701.275,156.4555 Q1702.1344,157.7836 1703.8141,157.7836 Q1704.5953,157.7836 1705.3375,157.4516 Q1706.0797,157.1 1706.8609,156.3773 L1706.8609,159.7758 Z " fill="#000000"/><text fill="#000000" font-family="sans-serif" font-size="17.5" lengthAdjust="spacing" textLength="133.7109" x="1720.65" y="158.7833">MandelbrotApp</text><line style="stroke:#181818;stroke-width:0.625;" x1="1685.65" x2="1856.8609" y1="172.725" y2="172.725"/><line style="stroke:#181818;stroke-width:0.625;" x1="1685.65" x2="1856.8609" y1="182.725" y2="182.725"/></g><!--class UIStyler--><g class="entity" data-entity="UIStyler" data-source-line="58" data-uid="ent0014" id="entity_UIStyler"><rect fill="#F1F1F1" height="60" rx="3.125" ry="3.125" style="stroke:#181818;stroke-width:0.625;" width="109.1199" x="1721.6875" y="769.4125"/><ellipse cx="1740.4375" cy="789.4125" fill="#ADD1B2" rx="13.75" ry="13.75" style="stroke:#181818;stroke-width:1.25;"/><path d="M1744.1484,796.4633 Q1743.4258,796.8344 1742.625,797.0102 Q1741.8242,797.2055 1740.9453,797.2055 Q1737.8203,797.2055 1736.1602,795.1547 Q1734.5195,793.0844 1734.5195,789.1781 Q1734.5195,785.2719 1736.1602,783.2016 Q1737.8203,781.1313 1740.9453,781.1313 Q1741.8242,781.1313 1742.625,781.3266 Q1743.4453,781.5219 1744.1484,781.893 L1744.1484,785.2914 Q1743.3672,784.5688 1742.625,784.2367 Q1741.8828,783.8852 1741.1016,783.8852 Q1739.4219,783.8852 1738.5625,785.2328 Q1737.7031,786.5609 1737.7031,789.1781 Q1737.7031,791.7953 1738.5625,793.143 Q1739.4219,794.4711 1741.1016,794.4711 Q1741.8828,794.4711 1742.625,794.1391 Q1743.3672,793.7875 1744.1484,793.0648 L1744.1484,796.4633 Z " fill="#000000"/><text fill="#000000" font-family="sans-serif" font-size="17.5" lengthAdjust="spacing" textLength="69.1199" x="1757.9375" y="795.4708">UIStyler</text><line style="stroke:#181818;stroke-width:0.625;" x1="1722.9375" x2="1829.5574" y1="809.4125" y2="809.4125"/><line style="stroke:#181818;stroke-width:0.625;" x1="1722.9375" x2="1829.5574" y1="819.4125" y2="819.4125"/></g><!--class ControllerMandelbrot--><g class="entity" data-entity="ControllerMandelbrot" data-source-line="62" data-uid="ent0016" id="entity_ControllerMandelbrot"><rect fill="#F1F1F1" height="222.9688" rx="3.125" ry="3.125" style="stroke:#181818;stroke-width:0.625;" width="225.9888" x="2198.25" y="51.25"/><ellipse cx="2217" cy="71.25" fill="#ADD1B2" rx="13.75" ry="13.75" style="stroke:#181818;stroke-width:1.25;"/><path d="M2220.7109,78.3008 Q2219.9883,78.6719 2219.1875,78.8477 Q2218.3867,79.043 2217.5078,79.043 Q2214.3828,79.043 2212.7227,76.9922 Q2211.082,74.9219 2211.082,71.0156 Q2211.082,67.1094 2212.7227,65.0391 Q2214.3828,62.9688 2217.5078,62.9688 Q2218.3867,62.9688 2219.1875,63.1641 Q2220.0078,63.3594 2220.7109,63.7305 L2220.7109,67.1289 Q2219.9297,66.4063 2219.1875,66.0742 Q2218.4453,65.7227 2217.6641,65.7227 Q2215.9844,65.7227 2215.125,67.0703 Q2214.2656,68.3984 2214.2656,71.0156 Q2214.2656,73.6328 2215.125,74.9805 Q2215.9844,76.3086 2217.6641,76.3086 Q2218.4453,76.3086 2219.1875,75.9766 Q2219.9297,75.625 2220.7109,74.9023 L2220.7109,78.3008 Z " fill="#000000"/><text fill="#000000" font-family="sans-serif" font-size="17.5" lengthAdjust="spacing" textLength="185.9888" x="2234.5" y="77.3083">ControllerMandelbrot</text><line style="stroke:#181818;stroke-width:0.625;" x1="2199.5" x2="2422.9888" y1="91.25" y2="91.25"/><text fill="#000000" font-family="sans-serif" font-size="17.5" lengthAdjust="spacing" textLength="150.2966" x="2205.75" y="112.4939">-dragStart : Point</text><text fill="#000000" font-family="sans-serif" font-size="17.5" lengthAdjust="spacing" textLength="140.8032" x="2205.75" y="132.865">-dragEnd : Point</text><text fill="#000000" font-family="sans-serif" font-size="17.5" lengthAdjust="spacing" textLength="177.8027" x="2205.75" y="153.2361">-isPanning : boolean</text><line style="stroke:#181818;stroke-width:0.625;" x1="2199.5" x2="2422.9888" y1="162.3633" y2="162.3633"/><text fill="#000000" font-family="sans-serif" font-size="17.5" lengthAdjust="spacing" textLength="166.438" x="2205.75" y="183.6072">+mousePressed(e)</text><text fill="#000000" font-family="sans-serif" font-size="17.5" lengthAdjust="spacing" textLength="173.2996" x="2205.75" y="203.9783">+mouseDragged(e)</text><text fill="#000000" font-family="sans-serif" font-size="17.5" lengthAdjust="spacing" textLength="178.0847" x="2205.75" y="224.3494">+mouseReleased(e)</text><text fill="#000000" font-family="sans-serif" font-size="17.5" lengthAdjust="spacing" textLength="184.4507" x="2205.75" y="244.7205">+actionPerformed(e)</text><text fill="#000000" font-family="sans-serif" font-size="17.5" lengthAdjust="spacing" textLength="161.5247" x="2205.75" y="265.0916">+stateChanged(e)</text></g><!--link ModelMandelbrot to MandelbrotCalculator--><g class="link" data-entity-1="ModelMandelbrot" data-entity-2="MandelbrotCalculator" data-source-line="74" data-uid="lnk17" id="link_ModelMandelbrot_MandelbrotCalculator"><path codeLine="74" d="M920.1478,981.5634 C863.3603,1024.6259 825.5758,1053.2679 786.8758,1082.6179" fill="none" id="ModelMandelbrot-MandelbrotCalculator" style="stroke:#181818;stroke-width:1.25;"/><polygon fill="none" points="932.1,972.5,923.1028,973.0477,920.1478,981.5634,929.1451,981.0158,932.1,972.5" style="stroke:#181818;stroke-width:1.25;"/><polygon fill="#181818" points="780.9,1087.15,792.8851,1084.3358,785.8799,1083.3733,786.8424,1076.368,780.9,1087.15" style="stroke:#181818;stroke-width:1.25;"/></g><!--link ModelMandelbrot to MandelbrotState--><g class="link" data-entity-1="ModelMandelbrot" data-entity-2="MandelbrotState" data-source-line="75" data-uid="lnk18" id="link_ModelMandelbrot_MandelbrotState"><path codeLine="75" d="M882.3968,848.3191 C692.7343,886.6191 447.975,948.4875 235,1047.0125 C227.8375,1050.325 227.1599,1050.3725 220.0474,1054.41" fill="none" id="ModelMandelbrot-MandelbrotState" style="stroke:#181818;stroke-width:1.25;"/><polygon fill="#181818" points="897.1,845.35,888.7587,841.9335,882.3968,848.3191,890.7381,851.7356,897.1,845.35" style="stroke:#181818;stroke-width:1.25;"/><polygon fill="#181818" points="213.525,1058.1125,225.7769,1056.907,218.9603,1055.0271,220.8402,1048.2105,213.525,1058.1125" style="stroke:#181818;stroke-width:1.25;"/></g><!--link ModelMandelbrot to ModelListener--><g class="link" data-entity-1="ModelMandelbrot" data-entity-2="ModelListener" data-source-line="76" data-uid="lnk19" id="link_ModelMandelbrot_ModelListener"><path codeLine="76" d="M1250.2,972.2625 C1273.2625,1015.525 1292.3601,1051.3563 1308.0351,1080.7688" fill="none" id="ModelMandelbrot-to-ModelListener" style="stroke:#181818;stroke-width:1.25;"/><polygon fill="#181818" points="1311.5625,1087.3875,1310.6839,1075.1078,1308.623,1081.8719,1301.859,1079.811,1311.5625,1087.3875" style="stroke:#181818;stroke-width:1.25;"/></g><!--link MandelbrotPanel to ModelListener--><g class="link" data-entity-1="MandelbrotPanel" data-entity-2="ModelListener" data-source-line="77" data-uid="lnk20" id="link_MandelbrotPanel_ModelListener"><path codeLine="77" d="M1589.3375,511.375 C1568.1375,610.5125 1518.6875,813.9625 1441.25,972.0125 C1420.6625,1014.0125 1403.2668,1039.5472 1379.5043,1069.5597" fill="none" id="MandelbrotPanel-to-ModelListener" style="stroke:#181818;stroke-width:1.25;stroke-dasharray:8.75,8.75;"/><polygon fill="none" points="1365.5375,1087.2,1385.3844,1074.2153,1373.6242,1064.9041,1365.5375,1087.2" style="stroke:#181818;stroke-width:1.25;"/></g><!--link MandelbrotPanel to ModelMandelbrot--><g class="link" data-entity-1="MandelbrotPanel" data-entity-2="ModelMandelbrot" data-source-line="78" data-uid="lnk21" id="link_MandelbrotPanel_ModelMandelbrot"><path codeLine="78" d="M1525.1875,511.3125 C1484.1625,543.425 1437.1308,580.2396 1384.3058,621.5896" fill="none" id="MandelbrotPanel-to-ModelMandelbrot" style="stroke:#181818;stroke-width:1.25;"/><polygon fill="#181818" points="1378.4,626.2125,1390.3407,623.2153,1383.3215,622.3601,1384.1768,615.3409,1378.4,626.2125" style="stroke:#181818;stroke-width:1.25;"/></g><!--link MandelbrotPanel to ColourMap--><g class="link" data-entity-1="MandelbrotPanel" data-entity-2="ColourMap" data-source-line="79" data-uid="lnk22" id="link_MandelbrotPanel_ColourMap"><path codeLine="79" d="M1667.85,511.6125 C1687.85,526.825 1710.6375,541.7125 1733.75,551.8125 C1782.8875,573.275 1807.7125,543.5875 1852.5,573.0625 C1916.875,615.4125 1956.9708,689.3992 1979.5333,741.7867" fill="none" id="MandelbrotPanel-to-ColourMap" style="stroke:#181818;stroke-width:1.25;"/><polygon fill="#181818" points="1982.5,748.675,1982.6422,736.3647,1980.0278,742.9347,1973.4578,740.3203,1982.5,748.675" style="stroke:#181818;stroke-width:1.25;"/></g><!--reverse link ColourMap to BlackWhiteColourMap--><g class="link" data-entity-1="ColourMap" data-entity-2="BlackWhiteColourMap" data-source-line="80" data-uid="lnk23" id="link_ColourMap_BlackWhiteColourMap"><path codeLine="80" d="M1954.0601,868.6603 C1906.2226,937.5978 1833.9,1041.8125 1795.175,1097.6125" fill="none" id="ColourMap-backto-BlackWhiteColourMap" style="stroke:#181818;stroke-width:1.25;stroke-dasharray:8.75,8.75;"/><polygon fill="none" points="1966.8875,850.175,1947.8983,864.3845,1960.2218,872.9361,1966.8875,850.175" style="stroke:#181818;stroke-width:1.25;"/></g><!--reverse link ColourMap to BlueColourMap--><g class="link" data-entity-1="ColourMap" data-entity-2="BlueColourMap" data-source-line="81" data-uid="lnk24" id="link_ColourMap_BlueColourMap"><path codeLine="81" d="M2005.6639,872.6329 C2009.8889,941.5704 2016.0375,1041.8125 2019.4625,1097.6125" fill="none" id="ColourMap-backto-BlueColourMap" style="stroke:#181818;stroke-width:1.25;stroke-dasharray:8.75,8.75;"/><polygon fill="none" points="2004.2875,850.175,1998.1779,873.0917,2013.1498,872.1741,2004.2875,850.175" style="stroke:#181818;stroke-width:1.25;"/></g><!--link ControllerMandelbrot to ModelMandelbrot--><g class="link" data-entity-1="ControllerMandelbrot" data-entity-2="ModelMandelbrot" data-source-line="83" data-uid="lnk25" id="link_ControllerMandelbrot_ModelMandelbrot"><path codeLine="83" d="M2201.2375,274.5375 C2184.7,286.325 2167.025,296.725 2148.75,304.2125 C2008.8875,361.5625 1601.525,274.7125 1470,349.2125 C1440.1875,366.1 1348.9388,500.667 1271.5638,620.167" fill="none" id="ControllerMandelbrot-to-ModelMandelbrot" style="stroke:#181818;stroke-width:1.25;"/><polygon fill="#181818" points="1267.4875,626.4625,1277.799,619.7367,1270.8844,621.2162,1269.4049,614.3017,1267.4875,626.4625" style="stroke:#181818;stroke-width:1.25;"/></g><!--link ControllerMandelbrot to MandelbrotPanel--><g class="link" data-entity-1="ControllerMandelbrot" data-entity-2="MandelbrotPanel" data-source-line="84" data-uid="lnk26" id="link_ControllerMandelbrot_MandelbrotPanel"><path codeLine="84" d="M2199.525,274.825 C2183.45,286.3125 2166.35,296.5625 2148.75,304.2125 C1978.6,378.1625 1906.225,280.85 1733.75,349.2125 C1709.7625,358.725 1692.3107,369.2443 1671.9982,384.8443" fill="none" id="ControllerMandelbrot-to-MandelbrotPanel" style="stroke:#181818;stroke-width:1.25;"/><polygon fill="#181818" points="1666.05,389.4125,1678.0178,386.5256,1671.0068,385.6056,1671.9268,378.5947,1666.05,389.4125" style="stroke:#181818;stroke-width:1.25;"/></g><!--link ControllerMandelbrot to ControlPanelMandelbrot--><g class="link" data-entity-1="ControllerMandelbrot" data-entity-2="ControlPanelMandelbrot" data-source-line="85" data-uid="lnk27" id="link_ControllerMandelbrot_ControlPanelMandelbrot"><path codeLine="85" d="M2197.9125,264.2625 C2181.625,277.95 2164.9125,291.6125 2148.75,304.2125 C2129.7625,319.025 2115.5015,329.7664 2095.2515,344.4164" fill="none" id="ControllerMandelbrot-to-ControlPanelMandelbrot" style="stroke:#181818;stroke-width:1.25;"/><polygon fill="#181818" points="2089.175,348.8125,2101.2205,346.2694,2094.2388,345.1491,2095.3591,338.1673,2089.175,348.8125" style="stroke:#181818;stroke-width:1.25;"/></g><!--link ControllerMandelbrot to ColourMap--><g class="link" data-entity-1="ControllerMandelbrot" data-entity-2="ColourMap" data-source-line="86" data-uid="lnk28" id="link_ControllerMandelbrot_ColourMap"><path codeLine="86" d="M2270.8625,274.675 C2240.875,353.3875 2197.35,460.85 2151.25,551.8125 C2115.4875,622.375 2070.8426,693.4064 2038.7551,742.2564" fill="none" id="ControllerMandelbrot-to-ColourMap" style="stroke:#181818;stroke-width:1.25;"/><polygon fill="#181818" points="2034.6375,748.525,2044.993,741.8671,2038.0688,743.3012,2036.6348,736.377,2034.6375,748.525" style="stroke:#181818;stroke-width:1.25;"/></g><!--link ControlPanelMandelbrot to UIStyler--><g class="link" data-entity-1="ControlPanelMandelbrot" data-entity-2="UIStyler" data-source-line="87" data-uid="lnk29" id="link_ControlPanelMandelbrot_UIStyler"><path codeLine="87" d="M1864.45,552.1625 C1860.175,559.0875 1856.15,566.0875 1852.5,573.0625 C1817.75,639.4 1795.7515,717.5446 1784.839,761.6446" fill="none" id="ControlPanelMandelbrot-to-UIStyler" style="stroke:#181818;stroke-width:1.25;stroke-dasharray:8.75,8.75;"/><polygon fill="#181818" points="1783.0375,768.925,1790.5934,759.2054,1784.5388,762.858,1780.8862,756.8034,1783.0375,768.925" style="stroke:#181818;stroke-width:1.25;"/></g><!--link MandelbrotApp to ModelMandelbrot--><g class="link" data-entity-1="MandelbrotApp" data-entity-2="ModelMandelbrot" data-source-line="89" data-uid="lnk30" id="link_MandelbrotApp_ModelMandelbrot"><path codeLine="89" d="M1684.075,181.575 C1589.5,204.8375 1439.575,254.4375 1346.25,349.2125 C1271.725,424.9 1227.3643,527.3767 1199.2893,619.3642" fill="none" id="MandelbrotApp-to-ModelMandelbrot" style="stroke:#181818;stroke-width:1.25;"/><polygon fill="#181818" points="1197.1,626.5375,1205.1662,617.237,1198.9244,620.5597,1195.6018,614.3179,1197.1,626.5375" style="stroke:#181818;stroke-width:1.25;"/></g><!--link MandelbrotApp to MandelbrotPanel--><g class="link" data-entity-1="MandelbrotApp" data-entity-2="MandelbrotPanel" data-source-line="90" data-uid="lnk31" id="link_MandelbrotApp_MandelbrotPanel"><path codeLine="90" d="M1754.0125,192.9 C1726.6625,238.8 1676.589,322.8195 1640.689,383.0695" fill="none" id="MandelbrotApp-to-MandelbrotPanel" style="stroke:#181818;stroke-width:1.25;"/><polygon fill="#181818" points="1636.85,389.5125,1646.9039,382.4074,1640.0492,384.1434,1638.3133,377.2887,1636.85,389.5125" style="stroke:#181818;stroke-width:1.25;"/></g><!--link MandelbrotApp to ControlPanelMandelbrot--><g class="link" data-entity-1="MandelbrotApp" data-entity-2="ControlPanelMandelbrot" data-source-line="91" data-uid="lnk32" id="link_MandelbrotApp_ControlPanelMandelbrot"><path codeLine="91" d="M1788.6125,192.9 C1810.425,229.2375 1845.1394,287.0825 1878.2144,342.17" fill="none" id="MandelbrotApp-to-ControlPanelMandelbrot" style="stroke:#181818;stroke-width:1.25;"/><polygon fill="#181818" points="1882.075,348.6,1880.5707,336.3812,1878.8578,343.2416,1871.9973,341.5287,1882.075,348.6" style="stroke:#181818;stroke-width:1.25;"/></g><!--link MandelbrotApp to ControllerMandelbrot--><g class="link" data-entity-1="MandelbrotApp" data-entity-2="ControllerMandelbrot" data-source-line="92" data-uid="lnk33" id="link_MandelbrotApp_ControllerMandelbrot"><path codeLine="92" d="M1858.2625,162.725 C1971.5125,162.725 2077.25,162.725 2190.5,162.725" fill="none" id="MandelbrotApp-to-ControllerMandelbrot" style="stroke:#181818;stroke-width:1.25;"/><polygon fill="#181818" points="2198,162.725,2186.75,157.725,2191.75,162.725,2186.75,167.725,2198,162.725" style="stroke:#181818;stroke-width:1.25;"/></g><!--SRC=[nLJBRjim4BphAtYKcrX8UmmC0x7J02xgmeZRvhoMDZ8HYbGeAaxR-D-xr5iMLRUd7YoiPuVBVGsp9ovJq92mK42MtHYZ-Iutk0gLtFAVoAwyhA54AMVlFrnvNWhX4yJ84XMXOByyLfvcQ_j_3PA-EwrCuM5icd1vZo3ODOjKlXDOeV3gGhbS9H0FkIEeGGs6AvcHZqjJEd8PgQsX90cynUSSPsrIX1kSbpoDVyMxoD1yvtXuu1Jtu5VbNBAg0ZBAf0l46fFcsBgRejzBk2Ab87swqa0PgZ0xCJHI5ByE22_uLTrnWVuZVIfKA8Zkj4fESOYYppmpA57xeZAiwqW_QXNgHmYnd5dDgoPsKGnskGSPO-JNPwePDnrQWWXp0KOrnq92EXsan0yyCljBjaSUxqtHg3EjAuscIPTCGyJpRFkS0qrhB9LYMFzdtOxUiHN42sr9aKRRtwKIAjThI9lUGkfpyZQLJYYMPUdI7wFv0Wdw5jwI76NSAteXwAw7FKLe8dTykGDTAccq4XkGBd7okgHjogLTWMlsgJ9haT06Bd9ZbBI-qcfrvlPOPRazTeVT7hl7RazOrxHKoKvPRs4irEkixD1yP2-AckjA8mqnBOes562ZciV2mXzbr0UR6wlPr1rrNNAJjht-jjgQ7u9QrrcAiEo_gEJL6mg1mv7yIw8yenebjO3WdL82GTOIpZFSqF0oad3z91JWBSM9Jy5xfADTAeHsAJQqnKed7JopKgkV1fpK2ZXz-jLqEdU-5GFckpwpaFA0L72wBvLtEkGWU3j7QOAq3YUd7NWhtjbR43YrDw1q9UWvn-pAOvpOJt2Sw9Rvd_Xj2Su78WZcxJvxlNq_qyg6SPBxa36Iz2YnLyPl]--></g></svg>